<mxfile host="app.diagrams.net" modified="2023-07-29T06:57:07.408Z" agent="Mozilla/5.0 (Windows NT 10.0; Win64; x64) AppleWebKit/537.36 (KHTML, like Gecko) Chrome/115.0.0.0 Safari/537.36" etag="Xm6szodzdL8lcM_cxWNY" version="21.6.3" type="device">
  <diagram name="Pagina-1" id="UnwLidDnudfYziKcE6wX">
    <mxGraphModel dx="1247" dy="610" grid="1" gridSize="10" guides="1" tooltips="1" connect="1" arrows="1" fold="1" page="1" pageScale="1" pageWidth="827" pageHeight="1169" math="0" shadow="0">
      <root>
        <mxCell id="0" />
        <mxCell id="1" parent="0" />
        <mxCell id="9o0YHKpaeCH0C4y9Lnnj-4" style="edgeStyle=orthogonalEdgeStyle;rounded=0;orthogonalLoop=1;jettySize=auto;html=1;shadow=0;jumpStyle=none;strokeColor=default;" edge="1" parent="1" source="9o0YHKpaeCH0C4y9Lnnj-1" target="9o0YHKpaeCH0C4y9Lnnj-2">
          <mxGeometry relative="1" as="geometry" />
        </mxCell>
        <mxCell id="9o0YHKpaeCH0C4y9Lnnj-1" value="&lt;b style=&quot;font-size: 16px;&quot;&gt;Frontend&lt;br&gt;Angular&lt;/b&gt;" style="whiteSpace=wrap;html=1;aspect=fixed;fillColor=#d5e8d4;strokeColor=#82b366;align=center;verticalAlign=top;" vertex="1" parent="1">
          <mxGeometry x="180" y="130" width="290" height="290" as="geometry" />
        </mxCell>
        <mxCell id="9o0YHKpaeCH0C4y9Lnnj-5" style="edgeStyle=orthogonalEdgeStyle;rounded=0;orthogonalLoop=1;jettySize=auto;html=1;" edge="1" parent="1" source="9o0YHKpaeCH0C4y9Lnnj-2" target="9o0YHKpaeCH0C4y9Lnnj-1">
          <mxGeometry relative="1" as="geometry" />
        </mxCell>
        <mxCell id="9o0YHKpaeCH0C4y9Lnnj-2" value="&lt;b style=&quot;font-size: 16px;&quot;&gt;&lt;font style=&quot;font-size: 16px;&quot;&gt;Cookie&lt;br&gt;&lt;br&gt;&lt;/font&gt;&lt;/b&gt;" style="shape=cylinder3;whiteSpace=wrap;html=1;boundedLbl=1;backgroundOutline=1;size=15;fillColor=#fff2cc;strokeColor=#d6b656;" vertex="1" parent="1">
          <mxGeometry x="580" y="225" width="150" height="100" as="geometry" />
        </mxCell>
        <mxCell id="9o0YHKpaeCH0C4y9Lnnj-6" value="Interfaccia utente" style="rounded=1;whiteSpace=wrap;html=1;" vertex="1" parent="1">
          <mxGeometry x="215" y="270" width="220" height="60" as="geometry" />
        </mxCell>
        <mxCell id="9o0YHKpaeCH0C4y9Lnnj-7" value="Header" style="rounded=1;whiteSpace=wrap;html=1;" vertex="1" parent="1">
          <mxGeometry x="215" y="200" width="220" height="60" as="geometry" />
        </mxCell>
        <mxCell id="9o0YHKpaeCH0C4y9Lnnj-8" value="Footer" style="rounded=1;whiteSpace=wrap;html=1;" vertex="1" parent="1">
          <mxGeometry x="215" y="340" width="220" height="60" as="geometry" />
        </mxCell>
        <mxCell id="9o0YHKpaeCH0C4y9Lnnj-13" style="edgeStyle=orthogonalEdgeStyle;rounded=0;orthogonalLoop=1;jettySize=auto;html=1;entryX=0;entryY=0.5;entryDx=0;entryDy=0;" edge="1" parent="1" source="9o0YHKpaeCH0C4y9Lnnj-10" target="9o0YHKpaeCH0C4y9Lnnj-1">
          <mxGeometry relative="1" as="geometry" />
        </mxCell>
        <mxCell id="9o0YHKpaeCH0C4y9Lnnj-10" value="API&lt;br&gt;(Assets pubblico)" style="rounded=1;whiteSpace=wrap;html=1;fillColor=#fff2cc;strokeColor=#d6b656;" vertex="1" parent="1">
          <mxGeometry x="95" y="450" width="120" height="60" as="geometry" />
        </mxCell>
        <mxCell id="9o0YHKpaeCH0C4y9Lnnj-12" value="" style="endArrow=classic;html=1;rounded=0;exitX=0.5;exitY=1;exitDx=0;exitDy=0;entryX=1;entryY=0.5;entryDx=0;entryDy=0;" edge="1" parent="1" source="9o0YHKpaeCH0C4y9Lnnj-1" target="9o0YHKpaeCH0C4y9Lnnj-10">
          <mxGeometry width="50" height="50" relative="1" as="geometry">
            <mxPoint x="390" y="380" as="sourcePoint" />
            <mxPoint x="440" y="330" as="targetPoint" />
            <Array as="points">
              <mxPoint x="325" y="480" />
            </Array>
          </mxGeometry>
        </mxCell>
        <mxCell id="9o0YHKpaeCH0C4y9Lnnj-16" value="" style="shape=image;verticalLabelPosition=bottom;labelBackgroundColor=default;verticalAlign=top;aspect=fixed;imageAspect=0;image=https://upload.wikimedia.org/wikipedia/commons/thumb/c/cf/Angular_full_color_logo.svg/2048px-Angular_full_color_logo.svg.png;" vertex="1" parent="1">
          <mxGeometry x="185" y="140" width="30" height="30" as="geometry" />
        </mxCell>
      </root>
    </mxGraphModel>
  </diagram>
</mxfile>
